<?xml version="1.0" standalone="no"?>
<!DOCTYPE svg PUBLIC "-//W3C//DTD SVG 20010904//EN"
 "http://www.w3.org/TR/2001/REC-SVG-20010904/DTD/svg10.dtd">
<svg version="1.0" xmlns="http://www.w3.org/2000/svg"
 width="500.000000pt" height="500.000000pt" viewBox="0 0 500.000000 500.000000"
 preserveAspectRatio="xMidYMid meet">
<metadata>
Created by potrace 1.14, written by Peter Selinger 2001-2017
</metadata>
<g transform="translate(0.000000,500.000000) scale(0.100000,-0.100000)"
fill="#000000" stroke="none">
<path d="M1029 4183 c-1 -10 -2 -47 -3 -82 -1 -43 -5 -66 -14 -69 -10 -3 -10
-7 0 -20 8 -9 13 -44 13 -91 0 -75 1 -76 28 -79 25 -3 32 5 28 31 -1 5 3 6 8
3 16 -10 0 -46 -21 -46 -10 0 -17 -4 -14 -8 3 -5 15 -8 28 -7 21 1 23 7 26 64
3 61 3 62 42 77 52 21 70 51 69 116 0 29 -3 47 -6 41 -2 -7 -9 -13 -14 -13 -6
0 -5 9 2 21 6 12 7 19 1 15 -5 -3 -12 5 -16 17 -7 31 -45 47 -106 47 -41 0
-50 -3 -51 -17z m92 -53 c33 -18 23 -100 -12 -100 -21 0 -21 -1 -24 55 -3 57
2 63 36 45z m89 -55 c0 -8 -4 -15 -8 -15 -5 0 -9 7 -9 15 0 8 4 15 9 15 4 0 8
-7 8 -15z m-2 -32 c-26 -55 -35 -64 -70 -75 -38 -11 -40 -14 -41 -55 0 -13 -4
-23 -8 -23 -9 0 -7 66 3 75 3 3 18 8 34 11 31 5 64 37 64 60 0 8 5 14 11 14 5
0 9 -3 7 -7z"/>
<path d="M1095 4090 c4 -58 15 -62 15 -7 0 26 -4 47 -9 47 -5 0 -8 -18 -6 -40z"/>
<path d="M1477 4194 c-4 -4 -7 -39 -7 -79 0 -43 -5 -76 -12 -83 -10 -10 -10
-15 -1 -20 7 -5 13 -39 15 -87 3 -78 4 -80 28 -80 24 0 25 3 28 73 3 73 3 73
30 70 29 -3 29 -4 31 -100 1 -44 3 -48 26 -48 27 0 27 0 30 80 3 84 4 90 15
90 5 0 6 -10 2 -22 -4 -13 -6 -43 -5 -68 2 -70 -4 -90 -30 -90 -16 0 -18 -3
-8 -9 7 -5 22 -6 32 -4 17 5 19 15 19 84 0 46 4 79 10 79 16 0 12 13 -13 42
-20 23 -23 37 -21 85 4 77 -2 93 -32 93 -23 0 -24 -3 -24 -62 0 -71 -9 -92
-36 -86 -16 3 -20 15 -24 73 -4 61 -8 70 -25 73 -12 2 -24 0 -28 -4z"/>
<path d="M1969 4181 c-18 -14 -23 -31 -27 -82 -3 -35 -10 -67 -16 -71 -8 -5
-7 -11 2 -20 6 -6 12 -36 12 -65 0 -44 5 -59 25 -78 13 -14 31 -25 39 -25 8 0
16 -5 18 -11 3 -8 16 -10 41 -5 46 9 68 40 75 104 2 26 8 49 13 50 22 9 7 24
-18 18 -24 -5 -26 -4 -13 6 19 16 24 72 10 113 -9 28 -9 27 -6 -12 2 -24 -1
-43 -6 -43 -5 0 -8 6 -7 13 9 75 -25 127 -84 127 -19 0 -45 -8 -58 -19z m76
-161 c0 -108 -1 -115 -20 -115 -19 0 -20 8 -23 104 -3 117 0 134 25 129 16 -3
18 -17 18 -118z m85 20 c0 -5 -2 -10 -4 -10 -3 0 -8 5 -11 10 -3 6 -1 10 4 10
6 0 11 -4 11 -10z m-6 -102 c-2 -24 -9 -53 -15 -64 -11 -22 -49 -44 -72 -44
-7 1 2 7 20 15 39 17 55 46 55 97 -1 21 3 38 7 38 5 0 7 -19 5 -42z"/>
<path d="M2010 4018 c0 -61 3 -108 7 -105 9 10 10 217 1 217 -5 0 -8 -50 -8
-112z"/>
<path d="M2409 4188 c0 -7 -2 -44 -2 -82 -1 -47 -6 -71 -15 -74 -10 -3 -10 -7
0 -20 7 -8 14 -40 14 -71 3 -112 -5 -101 78 -101 62 0 74 3 78 18 9 32 -3 42
-47 42 -38 0 -44 3 -49 26 -11 41 1 62 37 66 31 3 33 7 28 48 0 6 -14 10 -31
10 -16 0 -31 3 -31 8 -11 73 0 91 54 87 16 -1 31 5 37 14 8 14 9 14 10 -1 0
-15 -26 -31 -46 -27 -37 6 -50 -2 -49 -31 2 -41 15 -51 15 -12 0 31 1 32 44
32 51 0 60 13 38 53 -15 26 -20 27 -89 27 -51 0 -73 -4 -74 -12z"/>
<path d="M2837 4193 c-4 -3 -7 -38 -7 -78 0 -43 -5 -76 -12 -84 -10 -11 -10
-14 0 -18 8 -3 12 -29 12 -83 0 -70 2 -79 20 -85 34 -11 40 3 40 86 0 44 4 78
8 75 4 -3 19 -39 32 -81 19 -60 28 -77 46 -81 38 -10 44 3 44 86 0 54 4 80 13
83 10 4 10 7 0 18 -8 8 -13 42 -13 92 l0 78 -27 -3 c-27 -3 -28 -5 -30 -68 -2
-102 -2 -105 -12 -94 -5 5 -19 44 -31 87 -21 71 -25 77 -50 77 -15 0 -30 -3
-33 -7z"/>
<path d="M3327 4193 c-4 -3 -7 -41 -7 -84 0 -52 -4 -79 -12 -82 -10 -4 -10 -8
0 -15 9 -6 14 -35 15 -88 2 -78 2 -79 30 -82 l27 -3 0 85 c0 58 4 86 13 89 10
4 10 7 0 18 -8 8 -13 42 -13 91 0 75 -1 78 -23 78 -13 0 -27 -3 -30 -7z"/>
<path d="M3656 4192 c-2 -4 9 -41 25 -82 21 -56 25 -76 16 -82 -9 -6 -9 -10 1
-16 9 -6 6 -23 -13 -72 -35 -89 -35 -94 -2 -97 22 -1 30 4 38 25 25 70 26 70
44 27 21 -49 32 -57 68 -51 15 3 27 1 27 -4 0 -6 -4 -11 -10 -11 -5 -1 -14 -2
-19 -3 -25 -3 -21 -16 6 -16 16 0 32 3 36 6 3 3 -6 38 -20 77 -14 39 -25 82
-25 94 0 22 -9 29 -21 17 -5 -5 9 -49 38 -129 5 -13 5 -17 -2 -10 -5 6 -20 38
-32 73 -17 47 -20 66 -11 77 8 10 8 14 -2 17 -8 3 -3 26 19 80 17 42 28 79 25
82 -3 3 -16 6 -29 6 -19 0 -28 -9 -40 -40 -17 -43 -30 -51 -39 -22 -15 44 -29
62 -50 62 -13 0 -25 -3 -28 -8z"/>
<path d="M2921 4175 c0 -5 6 -32 13 -60 12 -41 14 -44 15 -20 0 27 -27 104
-28 80z"/>
<path d="M1540 4113 c0 -31 3 -53 8 -49 10 10 10 106 0 106 -4 0 -8 -25 -8
-57z"/>
<path d="M1659 4148 c-4 -80 -3 -100 4 -105 4 -2 7 25 7 61 0 36 -2 66 -5 66
-3 0 -5 -10 -6 -22z"/>
<path d="M3030 4111 c0 -33 4 -62 8 -65 4 -2 8 24 8 60 1 35 -3 64 -8 64 -4 0
-8 -27 -8 -59z"/>
<path d="M3390 4107 c0 -37 3 -67 8 -67 9 0 9 116 -1 126 -4 4 -7 -23 -7 -59z"/>
<path d="M3740 4155 c0 -8 4 -15 10 -15 5 0 7 7 4 15 -4 8 -8 15 -10 15 -2 0
-4 -7 -4 -15z"/>
<path d="M3844 4154 c-4 -10 -15 -40 -25 -66 -10 -27 -15 -48 -11 -48 10 0 54
121 47 128 -2 3 -8 -4 -11 -14z"/>
<path d="M2541 4013 c4 -25 -4 -33 -31 -33 -16 0 -30 -3 -31 -7 0 -5 -2 -15
-4 -24 -1 -9 1 -23 6 -30 6 -10 9 -6 9 14 0 15 5 28 10 28 6 1 18 2 28 2 9 1
20 6 24 12 11 15 10 45 -2 45 -5 0 -9 -3 -9 -7z"/>
<path d="M3035 3998 c-3 -7 -6 -47 -7 -88 -3 -69 -5 -75 -28 -82 -21 -6 -19
-7 10 -5 l35 2 1 72 c0 39 6 78 12 86 12 14 7 27 -10 27 -5 0 -11 -6 -13 -12z"/>
<path d="M3403 4003 c-9 -3 -13 -30 -13 -84 0 -72 -2 -80 -22 -88 -18 -6 -19
-9 -5 -14 30 -11 42 16 42 89 0 48 4 72 14 80 15 12 4 24 -16 17z"/>
<path d="M1540 3910 c0 -63 -2 -71 -22 -79 -12 -4 -17 -10 -12 -13 5 -3 18 -2
30 2 19 7 21 15 19 74 -1 51 2 66 12 66 8 0 11 5 8 10 -3 6 -13 10 -21 10 -11
0 -14 -16 -14 -70z"/>
<path d="M2901 3907 c-1 -60 -3 -69 -23 -77 -22 -8 -22 -9 5 -9 15 -1 27 2 28
7 5 35 3 114 -2 129 -4 10 -8 -11 -8 -50z"/>
<path d="M3736 3872 c-7 -31 -37 -58 -50 -45 -3 3 -6 1 -6 -5 0 -7 11 -12 24
-12 26 0 51 44 44 77 -3 12 -7 8 -12 -15z"/>
<path d="M2574 3852 c-5 -19 -14 -22 -78 -25 l-71 -3 77 -2 c70 -2 77 0 83 19
4 11 4 23 1 27 -4 3 -9 -4 -12 -16z"/>
<path d="M824 3798 c-82 -130 -124 -351 -100 -528 6 -46 7 -53 20 -105 12 -48
48 -149 59 -162 6 -9 6 -13 0 -13 -15 0 -178 173 -231 244 -24 34 -55 83 -68
110 l-22 48 -7 -58 c-9 -71 -1 -190 20 -269 22 -86 96 -230 156 -304 37 -45
45 -60 28 -51 -46 24 -186 119 -199 135 -30 36 -34 6 -14 -100 21 -106 129
-252 242 -325 29 -18 51 -35 49 -36 -5 -5 -130 32 -155 45 -34 18 -34 13 -3
-31 62 -89 155 -167 251 -211 46 -21 126 -47 148 -48 10 0 7 -4 -8 -8 -14 -5
-65 -8 -113 -7 -48 1 -87 -2 -87 -5 0 -12 79 -78 117 -98 71 -36 154 -54 247
-53 l90 0 -39 -19 c-22 -11 -57 -24 -78 -30 -22 -6 -37 -12 -36 -14 9 -8 134
-46 172 -53 23 -4 82 -6 131 -6 l90 1 -60 -27 -59 -27 58 -12 c72 -16 145 -12
218 10 60 17 169 83 169 102 0 6 3 7 6 4 12 -11 -47 -86 -120 -154 l-71 -65
56 5 c70 7 129 30 203 79 32 22 55 34 51 26 -20 -33 -93 -117 -124 -141 l-34
-27 29 0 c43 0 149 27 195 49 54 26 43 14 -40 -45 -135 -95 -177 -220 -133
-390 10 -38 17 -83 15 -99 -13 -97 -110 -122 -163 -41 l-21 31 4 -51 c5 -67
35 -110 87 -124 22 -6 51 -8 66 -4 24 6 26 5 18 -17 -5 -13 -9 -69 -9 -124 0
-142 28 -194 151 -286 60 -44 74 -75 39 -91 -16 -7 -29 -7 -45 2 -18 10 -21
10 -15 -2 22 -38 40 -48 83 -48 37 0 49 5 79 35 31 31 35 40 30 72 -4 20 -18
53 -32 74 -14 22 -21 39 -16 39 6 0 13 -5 16 -10 9 -15 73 -40 102 -40 14 0
26 -7 29 -17 19 -58 58 -141 77 -161 12 -13 46 -38 77 -55 49 -28 64 -32 130
-32 101 0 174 41 201 112 l9 24 26 -20 c36 -28 102 -28 132 -1 25 23 31 50 8
30 -8 -6 -25 -10 -38 -8 -18 2 -23 9 -23 32 0 24 10 36 60 71 93 65 141 148
149 256 3 40 -7 121 -19 150 -5 14 0 16 32 14 84 -6 143 50 143 135 l0 45 -20
-33 c-34 -55 -93 -64 -131 -21 -31 36 -33 67 -14 165 39 197 0 294 -167 413
-55 40 -61 48 -17 25 46 -23 117 -44 177 -50 l53 -6 -48 45 c-81 76 -140 168
-68 107 23 -20 87 -53 130 -69 49 -17 135 -29 141 -20 3 5 0 9 -6 9 -25 0
-190 178 -190 205 0 4 16 -7 35 -24 97 -85 244 -119 375 -88 l55 13 -62 23
c-35 13 -63 25 -63 26 0 2 35 2 78 0 86 -4 191 13 267 43 l50 20 -40 11 c-22
6 -58 20 -80 30 l-39 19 94 0 c140 0 246 39 345 126 l30 26 -60 1 c-33 1 -73
2 -90 4 -16 1 -43 3 -60 4 -25 2 -20 6 30 21 88 27 133 47 200 93 64 43 139
117 167 165 l18 29 -86 -28 c-47 -16 -90 -29 -95 -29 -6 0 25 26 68 58 87 65
149 139 189 225 27 61 53 181 41 193 -4 4 -20 -4 -35 -18 -31 -29 -94 -72
-167 -114 l-50 -28 41 49 c134 162 197 329 196 523 -1 51 -4 97 -8 103 -3 6
-14 -6 -24 -28 -9 -21 -38 -65 -62 -99 -48 -64 -228 -257 -235 -251 -2 2 5 24
15 48 39 92 65 220 65 324 0 55 -2 118 -6 140 -4 22 -10 56 -13 75 -8 47 -59
176 -88 223 l-23 38 -13 -83 c-33 -218 -141 -472 -278 -653 -55 -73 -191 -225
-201 -225 -4 0 -6 19 -5 43 3 59 -4 64 -32 24 -26 -39 -133 -114 -217 -152
-55 -26 -215 -86 -292 -110 -104 -33 -207 -90 -277 -153 l-27 -25 -43 33 c-65
51 -118 102 -133 130 -15 29 -5 63 21 78 24 14 93 -12 135 -49 l34 -30 3 33
c5 42 -12 98 -38 129 -16 17 -19 30 -14 49 26 92 -43 184 -180 240 -52 21 -73
41 -61 61 3 4 15 -1 26 -12 16 -16 23 -18 35 -8 28 23 10 69 -28 69 -19 0 -53
-33 -53 -52 0 -23 -23 -18 -48 12 -23 26 -25 34 -15 60 10 29 34 50 57 50 6 0
8 -6 6 -12 -7 -19 7 -36 36 -43 21 -5 30 -2 42 15 41 59 -46 118 -118 80 -14
-7 -34 -33 -46 -57 -26 -54 -22 -111 11 -175 12 -24 19 -40 15 -36 -14 13 -70
-24 -126 -84 -53 -56 -55 -60 -28 -54 l28 5 -30 -44 c-16 -24 -35 -46 -42 -49
-6 -3 2 -5 20 -3 l32 3 -21 -29 c-26 -37 -51 -119 -39 -127 6 -3 8 -30 4 -61
l-5 -56 -52 31 c-65 39 -101 54 -256 110 -244 87 -349 143 -420 223 -44 50
-45 48 -41 -35 1 -22 -2 -31 -9 -27 -6 3 -49 50 -96 102 -180 203 -301 430
-363 683 -16 64 -30 164 -24 173 2 4 2 7 -1 7 -3 0 -18 -19 -32 -42z m3252
-231 c20 -84 28 -315 13 -373 -17 -68 -41 -145 -44 -142 -2 2 3 35 11 73 21
110 17 384 -6 358 -4 -4 -15 -33 -24 -63 -24 -76 -97 -213 -151 -285 -25 -33
-80 -96 -122 -139 -82 -83 -231 -201 -242 -190 -3 3 8 17 24 30 198 162 316
309 410 509 43 91 94 238 97 280 4 39 16 18 34 -58z m-3246 46 c0 -31 70 -223
109 -302 78 -154 153 -257 270 -370 42 -40 95 -86 119 -103 64 -45 43 -46 -25
-2 -90 59 -273 246 -336 344 -66 102 -125 230 -140 305 -2 13 -7 5 -14 -25
-14 -55 -9 -287 6 -354 18 -77 6 -64 -20 21 -31 103 -33 305 -5 430 10 45 23
80 27 77 5 -3 9 -12 9 -21z m3524 -410 c-8 -74 -37 -169 -77 -251 -21 -46 -41
-81 -43 -79 -2 2 5 22 16 45 20 40 50 143 50 170 0 7 -37 -25 -81 -72 -180
-190 -461 -355 -664 -391 -57 -10 -44 -2 75 44 119 46 248 117 364 200 96 68
255 224 316 309 24 34 45 62 46 62 1 0 0 -17 -2 -37z m-3794 -24 c40 -60 181
-207 260 -271 124 -101 280 -190 441 -252 56 -22 80 -34 59 -32 -94 13 -300
101 -411 176 -94 64 -220 171 -280 240 -29 33 -54 58 -56 56 -11 -11 43 -179
75 -236 14 -24 13 -24 -3 -5 -27 32 -65 112 -91 191 -25 77 -45 184 -35 184 3
0 22 -23 41 -51z m1824 -76 c-6 17 -4 17 27 3 19 -7 54 -22 79 -32 86 -35 116
-67 135 -144 3 -14 -6 -3 -19 24 -29 56 -47 72 -96 85 -76 20 -92 22 -85 11 3
-5 -1 -10 -10 -10 -21 0 -71 52 -78 81 -5 19 -3 19 24 -7 20 -19 28 -23 23
-11z m-96 -74 c-10 -5 -18 -17 -18 -24 0 -8 -8 -15 -17 -15 -14 0 -12 4 7 25
13 14 28 25 34 25 6 0 3 -5 -6 -11z m-34 -91 c-17 -19 -17 -21 -2 -15 10 3 20
1 24 -6 4 -7 4 -9 0 -5 -4 3 -24 -1 -44 -9 -35 -14 -36 -14 -22 3 16 20 52 53
59 54 2 0 -4 -10 -15 -22z m257 -40 c13 -23 -2 -23 -31 0 -14 11 -20 24 -16
31 9 14 31 0 47 -31z m-976 -121 c18 -17 -39 4 -77 29 -47 30 -50 30 -38 -1 5
-14 7 -25 5 -25 -9 0 -35 60 -35 80 0 19 7 16 68 -26 37 -26 72 -52 77 -57z
m1950 85 c-5 -26 -33 -92 -39 -92 -3 0 -1 12 4 26 14 37 14 37 -32 10 -72 -41
-97 -42 -38 -1 30 21 66 46 79 57 29 22 31 22 26 0z m-834 -62 c19 -26 38 -91
23 -77 -5 5 -9 12 -9 15 -2 27 -22 56 -48 73 -29 18 -30 20 -8 17 13 -2 32
-14 42 -28z m-791 -151 c41 -12 95 -32 120 -45 69 -34 162 -106 200 -155 l35
-44 -56 50 c-65 59 -151 107 -252 140 l-72 25 30 -28 c39 -36 80 -97 100 -147
15 -39 15 -39 -2 -15 -42 59 -115 128 -220 207 -62 47 -113 86 -113 88 0 1 35
-10 78 -26 42 -15 111 -38 152 -50z m-1010 -69 c185 -66 377 -102 562 -104 87
-2 136 -15 62 -17 -21 -1 -59 -2 -84 -3 -206 -9 -478 51 -697 154 -57 27 -103
45 -103 41 0 -13 81 -135 99 -148 9 -7 11 -13 4 -13 -17 0 -91 96 -124 162
-16 32 -29 60 -29 62 0 3 46 -18 103 -46 56 -28 149 -68 207 -88z m2380 136
c0 -3 -42 -35 -92 -72 -120 -87 -195 -163 -242 -244 -20 -36 -34 -54 -30 -40
13 46 75 154 116 204 37 43 39 48 17 41 -65 -18 -140 -53 -202 -92 -78 -50
-90 -53 -56 -17 65 70 193 136 328 170 36 10 84 25 106 35 42 18 55 22 55 15z
m1076 -61 c-31 -63 -105 -160 -114 -150 -4 3 -1 9 5 13 13 8 93 135 89 140 -2
2 -35 -13 -72 -32 -217 -110 -462 -170 -689 -169 -129 0 -168 3 -161 10 4 4
49 8 99 9 159 4 214 11 377 50 133 31 268 81 390 143 52 26 97 47 99 45 2 -2
-9 -28 -23 -59z m-2696 -110 c52 -13 104 -26 115 -29 11 -3 -9 -3 -45 -1 -36
3 -88 11 -115 20 -60 18 -68 18 -59 4 9 -15 -22 3 -61 36 l-30 25 50 -15 c28
-9 93 -26 145 -40z m1805 21 c-24 -21 -43 -30 -47 -24 -4 8 -23 6 -57 -6 -28
-9 -85 -18 -128 -21 l-78 -5 70 15 c94 19 227 55 245 66 35 20 32 6 -5 -25z
m-1737 -211 c50 0 92 -3 92 -6 0 -10 -110 -19 -164 -13 l-49 5 24 -21 c23 -20
22 -20 -19 1 -67 36 -75 51 -21 42 24 -4 86 -8 137 -8z m1681 -4 c-13 -10 -40
-26 -59 -35 l-35 -17 24 19 24 20 -74 -2 c-41 -1 -101 3 -134 10 -59 11 -59
11 50 9 61 -2 130 0 155 5 70 12 74 11 49 -9z m-1546 2 c-7 -2 -19 -2 -25 0
-7 3 -2 5 12 5 14 0 19 -2 13 -5z m-1027 -28 c102 -24 180 -30 377 -30 185 0
187 0 125 -14 -78 -18 -400 -20 -440 -3 -44 18 -33 -3 20 -37 59 -39 49 -40
-26 -2 -56 29 -146 100 -127 100 6 1 38 -6 71 -14z m3339 -21 c-35 -32 -143
-94 -161 -94 -4 0 14 14 39 31 51 34 73 57 41 45 -55 -22 -347 -30 -424 -12
-14 3 -49 11 -77 17 -29 6 -53 13 -53 15 0 4 24 1 95 -12 28 -6 279 -5 296 0
8 3 41 7 74 11 33 3 87 12 120 19 89 20 94 19 50 -20z m-2738 0 c-3 -3 -12 -4
-19 -1 -8 3 -5 6 6 6 11 1 17 -2 13 -5z m673 -110 c41 -34 84 -72 95 -84 18
-21 -32 16 -142 106 -23 18 -51 48 -63 66 l-22 33 29 -30 c15 -16 62 -58 103
-91z m880 106 c0 -5 -40 -53 -90 -104 -52 -55 -90 -88 -90 -78 0 9 39 55 88
103 100 99 92 92 92 79z m-1145 -82 c-11 -7 -42 -17 -70 -24 -28 -6 -49 -16
-47 -23 1 -8 -4 -8 -18 1 -27 17 -25 23 8 26 15 1 48 8 72 16 57 18 82 20 55
4z m1322 -3 c24 -8 59 -17 79 -19 46 -6 50 -10 19 -24 -17 -8 -24 -8 -22 -1 1
6 -22 17 -51 25 -53 14 -97 33 -77 34 6 0 29 -7 52 -15z m-1872 -111 c-63 -18
-83 -22 -175 -36 l-75 -11 50 -24 c47 -23 48 -24 15 -19 -58 10 -134 36 -159
55 -24 18 -23 18 60 20 46 1 98 4 114 6 17 3 59 7 94 10 35 3 67 7 69 10 3 3
17 5 31 4 18 -1 11 -5 -24 -15z m2450 1 c65 -8 154 -13 235 -14 57 -1 63 -3
49 -16 -17 -18 -107 -51 -164 -60 l-40 -6 50 24 50 24 -50 7 c-71 10 -185 34
-220 46 l-30 10 35 -5 c19 -2 58 -7 85 -10z m-302 -99 c50 -24 124 -54 162
-66 75 -25 101 -40 70 -40 -11 -1 -38 -3 -60 -5 -22 -3 -34 -2 -27 1 16 7 16
24 -1 24 -35 0 -297 147 -297 166 0 3 14 -4 30 -16 17 -12 72 -41 123 -64z
m-1773 69 c0 -16 -256 -155 -287 -155 -19 0 -16 -18 5 -23 11 -3 9 -5 -8 -6
-37 -1 -110 21 -85 27 84 18 322 119 360 153 10 10 15 11 15 4z m121 -132
c-13 -26 -51 -58 -88 -77 -53 -26 -49 -18 15 28 33 24 63 49 66 55 12 18 17
12 7 -6z m1504 -77 c17 -9 24 -16 17 -16 -34 0 -113 56 -134 94 -6 11 11 1 38
-22 27 -22 63 -48 79 -56z m-1201 -247 c-10 -12 -36 -32 -56 -45 -89 -57 -119
-120 -112 -240 2 -41 6 -80 10 -85 3 -5 1 -9 -4 -9 -9 0 -32 95 -32 135 0 38
29 119 52 146 20 23 146 118 157 119 2 0 -4 -10 -15 -21z m873 -51 c94 -71
125 -178 87 -303 -10 -36 -11 -30 -10 70 1 99 -1 114 -23 152 -14 25 -48 59
-81 82 -65 46 -107 90 -55 57 17 -10 54 -37 82 -58z m-241 -52 c23 -36 43
-126 39 -177 -4 -48 -15 -65 -15 -23 0 16 -4 35 -9 42 -5 8 -8 -8 -9 -40 0
-54 -6 -117 -21 -221 -4 -31 -6 -68 -5 -82 1 -14 -2 -25 -7 -25 -12 0 -10 100
3 145 15 53 9 268 -8 297 -3 4 -1 8 5 8 5 0 19 -16 31 -36 12 -19 24 -33 26
-32 8 9 -26 109 -50 144 -15 22 -26 52 -25 69 l0 30 14 -37 c7 -20 21 -48 31
-62z m-438 42 c-6 -18 -22 -47 -34 -66 -25 -37 -40 -93 -30 -117 3 -8 2 -30
-1 -48 l-7 -32 -6 30 c-9 47 7 122 40 191 16 34 30 68 30 74 0 6 4 9 9 5 6 -3
6 -18 -1 -37z m-223 -49 c-8 -23 -15 -51 -15 -62 0 -21 0 -21 16 -1 14 18 15
18 4 -4 -6 -13 -12 -37 -12 -53 -1 -20 -4 -27 -11 -20 -16 16 -12 103 6 144
22 50 30 47 12 -4z m371 -150 c19 -57 37 -105 39 -107 5 -5 47 67 66 116 18
42 19 43 13 12 -3 -19 -14 -62 -24 -95 -10 -34 -21 -85 -24 -115 -3 -30 -8
-79 -11 -109 -7 -72 -14 -98 -37 -146 -25 -49 -76 -105 -97 -105 -10 0 -12 3
-5 8 45 31 91 139 97 227 4 59 -15 182 -37 245 -16 44 -34 190 -22 179 3 -3
22 -52 42 -110z m-165 43 c-10 -33 -8 -247 2 -292 8 -35 10 -60 7 -100 -1 -19
-8 10 -15 65 -7 55 -16 118 -19 140 -5 38 -10 156 -7 182 1 13 31 46 37 40 2
-2 0 -18 -5 -35z m349 -229 c-20 -169 33 -282 147 -317 29 -9 39 -15 25 -15
-68 -2 -146 71 -176 164 -22 70 -20 225 3 225 4 0 4 -26 1 -57z m488 -144 c24
-12 42 -15 69 -9 20 5 32 5 27 0 -16 -16 -68 -20 -97 -9 -25 11 -77 82 -77
105 0 5 10 -9 23 -31 12 -22 37 -47 55 -56z m-1189 37 c-12 -20 -33 -43 -48
-50 -26 -13 -97 -11 -106 4 -3 5 12 6 32 3 52 -6 88 10 115 51 30 45 35 39 7
-8z m618 1 c8 -185 9 -176 -37 -282 -68 -158 -66 -278 5 -349 25 -25 29 -32
14 -29 -33 9 -78 62 -90 106 -18 67 -5 179 35 295 20 57 39 129 42 160 4 31 8
64 10 72 1 8 3 27 3 43 1 43 16 31 18 -16z m-447 -31 c0 -2 -16 -27 -35 -56
-19 -29 -35 -58 -35 -65 0 -8 -4 -16 -9 -20 -19 -11 23 97 51 133 10 11 28 17
28 8z m840 -43 c17 -26 30 -56 29 -67 0 -19 -2 -18 -12 4 -6 14 -24 41 -39 61
-30 40 -34 49 -18 49 6 0 24 -21 40 -47z m-762 -20 c-2 -5 -13 -29 -25 -55
-28 -58 -34 -128 -18 -193 17 -66 11 -69 -10 -6 -23 70 -13 198 20 251 7 12
38 14 33 3z m687 -48 c22 -74 22 -160 0 -213 -10 -24 -20 -41 -22 -38 -3 2 1
14 7 26 6 12 13 54 14 93 3 59 -1 80 -20 119 -28 55 -30 68 -9 68 9 0 20 -20
30 -55z m-921 -7 c-5 -18 -19 -72 -24 -95 0 -2 0 -20 0 -40 0 -20 -3 -34 -6
-30 -10 10 -5 134 7 161 15 32 33 35 23 4z m1134 -41 c5 -26 6 -49 2 -52 -4
-3 -10 12 -14 33 -3 20 -9 48 -12 62 -5 17 -3 22 4 15 5 -5 14 -31 20 -58z
m-101 1 c-3 -8 -6 -5 -6 6 -1 11 2 17 5 13 3 -3 4 -12 1 -19z m-586 -175 c5
-14 8 -28 5 -30 -2 -3 -7 5 -11 16 -3 12 -10 21 -15 21 -5 0 -14 9 -20 21 -11
19 -10 20 10 9 11 -6 25 -23 31 -37z m257 28 c-7 -11 -17 -19 -22 -18 -6 1
-13 -14 -17 -33 l-6 -35 -2 31 c-1 39 15 61 57 73 1 1 -3 -8 -10 -18z m-506
-283 c-2 -10 -11 -23 -20 -30 -14 -12 -14 -10 0 17 8 17 13 39 11 50 -3 20 -3
20 6 0 4 -11 6 -27 3 -37z m728 -18 c12 -23 12 -24 -3 -11 -10 7 -17 20 -17
29 0 18 3 16 20 -18z"/>
<path d="M2203 3649 c-34 -13 -25 -79 13 -102 16 -9 19 -37 5 -37 -6 0 -13 5
-16 10 -9 15 -25 12 -25 -4 0 -30 60 -55 78 -33 16 18 2 64 -26 92 -22 22 -24
28 -12 36 13 7 13 9 1 9 -8 0 -11 3 -8 7 4 3 16 -2 27 -12 11 -10 23 -15 27
-12 3 4 1 7 -5 7 -7 0 -11 3 -11 8 5 32 -14 44 -48 31z"/>
<path d="M3797 3647 c-9 -7 -17 -19 -18 -27 -4 -23 12 -70 22 -65 4 3 13 -3
18 -14 14 -26 14 -31 -4 -31 -8 0 -15 5 -15 10 0 6 -7 10 -15 10 -27 0 -14
-30 22 -49 15 -7 24 -8 28 -1 4 6 11 7 17 4 6 -4 8 1 3 16 -5 15 -4 20 4 16 8
-5 8 0 -1 18 -6 14 -15 26 -20 26 -4 0 -8 5 -8 11 0 7 -7 17 -17 24 -26 19 -6
38 22 19 18 -11 25 -12 31 -3 4 8 3 9 -4 5 -7 -4 -12 -1 -12 8 0 23 -34 38
-53 23z"/>
<path d="M1019 3623 c-5 -127 -4 -143 11 -144 8 -1 28 -2 43 -3 21 -2 27 1 22
11 -3 8 -5 17 -5 19 0 2 -9 4 -21 4 -11 0 -17 5 -14 10 3 6 1 10 -6 10 -7 0
-4 7 7 16 10 8 14 13 8 10 -7 -3 -14 3 -17 14 -3 11 -1 17 4 14 5 -3 8 8 7 25
-1 16 -6 27 -10 25 -4 -3 -8 0 -8 5 0 25 -20 9 -21 -16z"/>
<path d="M1259 3648 c-3 -10 -9 -42 -18 -98 -11 -64 -6 -80 24 -80 6 0 3 5 -5
10 -13 8 -12 10 3 10 9 0 17 8 17 18 0 12 4 10 13 -8 14 -28 47 -40 47 -16 0
8 -4 17 -10 21 -5 3 -6 13 -3 22 4 11 3 14 -5 9 -7 -4 -12 -2 -12 3 0 6 7 11
16 11 13 0 11 5 -7 21 -13 11 -18 18 -11 14 6 -3 12 -2 12 2 0 5 -6 15 -12 22
-11 11 -10 12 2 6 10 -6 8 -1 -4 13 -16 18 -44 30 -47 20z m26 -88 c3 -5 1
-10 -4 -10 -6 0 -11 5 -11 10 0 6 2 10 4 10 3 0 8 -4 11 -10z"/>
<path d="M1466 3618 c18 -105 26 -137 39 -141 19 -8 25 2 18 34 -3 16 -1 29 4
29 5 0 10 -12 11 -27 2 -24 16 -42 33 -43 3 0 4 15 2 33 -2 25 -1 28 5 12 8
-17 10 -16 14 12 2 18 0 37 -6 43 -7 7 -6 10 1 10 6 0 10 8 8 18 -2 9 -4 25
-4 35 -1 23 -23 17 -27 -7 -3 -22 -14 -34 -15 -18 -1 7 -2 18 -3 25 -2 22 -30
13 -36 -13 l-6 -25 -7 28 c-11 40 -38 36 -31 -5z"/>
<path d="M1749 3608 c-7 -80 0 -125 21 -131 17 -4 18 0 15 42 l-4 46 15 -40
c13 -35 29 -54 45 -55 4 0 5 21 2 48 -3 35 -2 43 6 32 7 -9 11 -10 11 -3 0 6
-4 15 -10 18 -5 3 -10 24 -10 46 0 28 -4 39 -12 36 -7 -2 -14 -10 -14 -18 -1
-8 -3 -25 -4 -39 -1 -21 -4 -18 -14 15 -17 57 -43 59 -47 3z"/>
<path d="M2419 3648 c-7 -15 -4 -156 4 -165 5 -7 25 -13 44 -13 28 0 34 3 29
16 -3 9 -6 18 -6 20 0 2 -11 4 -25 4 -19 0 -25 5 -25 23 0 18 2 19 10 7 6 -9
10 -11 10 -3 0 7 7 10 16 6 14 -5 15 -3 5 15 -7 12 -18 22 -26 22 -8 0 -15 8
-15 18 0 15 6 18 29 14 26 -4 29 -2 24 17 -4 16 -13 21 -39 21 -19 0 -35 -1
-35 -2z"/>
<path d="M2649 3643 c-1 -5 -2 -39 -3 -76 -2 -77 13 -113 36 -88 9 10 9 12 1
7 -9 -5 -13 2 -13 23 0 39 19 40 26 2 4 -18 14 -31 27 -35 26 -7 26 -7 20 27
-4 21 -8 25 -14 15 -5 -8 -8 -1 -6 19 1 18 4 33 7 33 15 0 6 46 -12 62 -21 18
-67 25 -69 11z m49 -51 c2 -15 -2 -22 -12 -22 -11 0 -16 9 -16 26 0 31 23 28
28 -4z"/>
<path d="M2884 3603 c6 -70 17 -112 30 -120 21 -14 35 -11 29 5 -4 9 -2 13 4
9 8 -5 10 3 7 23 -3 17 -1 29 4 28 13 -4 15 3 6 26 -4 10 -3 26 3 35 12 20 6
41 -12 41 -7 0 -16 -16 -19 -35 -7 -38 -29 -49 -25 -12 4 25 -7 47 -22 47 -6
0 -8 -20 -5 -47z"/>
<path d="M3126 3642 c-2 -4 -3 -20 -2 -35 2 -15 -1 -30 -6 -33 -4 -3 -5 -10
-1 -17 3 -6 7 -25 6 -41 0 -41 29 -62 41 -30 3 8 2 12 -4 9 -14 -9 -13 28 2
43 8 8 8 15 -1 26 -7 8 -12 25 -11 38 1 13 2 29 1 36 -1 13 -17 16 -25 4z"/>
<path d="M3330 3635 c-16 -20 -17 -119 -2 -138 15 -18 52 -29 52 -15 0 5 4 6
10 3 6 -4 7 1 3 11 -4 12 -3 15 5 10 16 -10 16 16 0 32 -18 18 -28 15 -28 -9
0 -12 -5 -19 -12 -16 -8 2 -13 22 -13 52 0 30 5 50 13 53 6 2 12 -3 12 -11 0
-8 7 -18 16 -21 24 -9 31 -7 14 4 -10 7 -11 10 -2 10 9 0 8 7 -4 25 -18 28
-45 32 -64 10z"/>
<path d="M3559 3643 c-6 -33 -4 -141 3 -155 6 -12 20 -18 43 -18 19 0 35 3 35
8 0 15 -16 30 -35 33 -11 3 -21 13 -23 24 -3 17 -1 17 7 5 7 -10 11 -11 11 -3
0 7 7 10 15 7 8 -4 15 -2 15 2 0 15 -14 30 -32 37 -19 7 -24 32 -8 42 5 3 7 0
4 -8 -4 -11 1 -13 19 -10 18 4 23 10 20 24 -4 14 -14 19 -39 19 -19 0 -35 -3
-35 -7z"/>
</g>
</svg>
